<svg width="1920" height="1618" viewBox="0 0 1920 1618" fill="none" xmlns="http://www.w3.org/2000/svg">
<path d="M-41.8711 1305.5C-44.0642 1334.69 -19.1088 1395.49 97.7397 1405.04C221.1 1415.13 237.456 1446.51 253.037 1476.4C255.905 1481.9 258.746 1487.36 262.222 1492.61C284.592 1526.45 320.12 1560.28 445.127 1533.41C570.134 1506.55 692.509 1497.59 785.935 1561.28C860.676 1612.23 933.027 1618 959.629 1618C986.231 1618 1058.58 1612.23 1133.32 1561.28C1226.75 1497.59 1349.12 1506.55 1474.13 1533.41C1599.14 1560.28 1634.67 1526.45 1657.04 1492.61C1660.51 1487.36 1663.35 1481.9 1666.22 1476.4C1681.8 1446.51 1698.16 1415.13 1821.52 1405.04C1938.37 1395.49 1963.19 1334.72 1961 1305.53V0H1959.4C1951.91 31.134 1918.24 74.134 1821.52 82.0419C1698.16 92.1276 1681.8 123.509 1666.22 153.403C1663.35 158.904 1660.51 164.355 1657.04 169.614C1634.67 203.448 1599.14 237.282 1474.13 210.414C1349.12 183.545 1226.75 174.589 1133.32 238.278C1058.58 289.228 986.231 295 959.629 295C933.027 295 860.676 289.228 785.935 238.278C692.509 174.589 570.134 183.545 445.127 210.414C320.12 237.282 284.592 203.448 262.222 169.614C258.746 164.355 255.905 158.904 253.037 153.403C237.456 123.509 221.1 92.1276 97.7397 82.0419C1.01764 74.134 -32.6524 31.134 -40.1379 0H-41.7417L-41.8711 1305.5Z" fill="#F2F0F4"/>
</svg>
