<svg width="1920" height="1213" viewBox="0 0 1920 1213" fill="none" xmlns="http://www.w3.org/2000/svg">
<path d="M98.6108 1000.04C-18.2377 990.489 -43.0636 929.719 -40.8705 900.529L-40.8705 535L1961.87 535V900.529C1964.06 929.719 1939.24 990.489 1822.39 1000.04C1676.33 1011.98 1680.28 1053.78 1657.91 1087.61C1635.54 1121.45 1600.01 1155.28 1475 1128.41C1350 1101.55 1227.62 1092.59 1134.19 1156.28C1059.45 1207.23 987.102 1213 960.5 1213C933.898 1213 861.547 1207.23 786.806 1156.28C693.38 1092.59 571.005 1101.55 445.998 1128.41C320.991 1155.28 285.463 1121.45 263.093 1087.61C240.724 1053.78 244.671 1011.98 98.6108 1000.04Z" fill="#1D1534"/>
<path d="M2097.45 718.077C2238.32 772.613 2242.45 880.511 2226.9 927.643L2033.27 912.29L-19.9983 912.291L-259.625 261.38C-249.523 212.789 -192.002 121.409 -42.7305 144.618C143.859 173.629 157.32 103.787 199.958 55.7535C242.596 7.7195 301.571 -35.937 444.97 49.704C588.37 135.345 736.371 190.741 880.346 117.397C995.526 58.721 1087.89 73.3269 1120.92 82.1768C1153.95 91.0268 1241.24 124.559 1311.65 232.964C1399.66 368.47 1555.53 394.496 1722.54 392.029C1889.55 389.561 1918.8 456.856 1931.71 519.774C1944.61 582.691 1921.35 649.907 2097.45 718.077Z" fill="#1D1534"/>
</svg>
