<svg width="2003" height="371" viewBox="0 0 2003 371" fill="none" xmlns="http://www.w3.org/2000/svg">
<path d="M1863.39 212.958C1980.24 222.511 2005.06 283.281 2002.87 312.471L2002.87 370.5L1502.19 370.5L1001.5 370.5L0.129395 370.5V312.471C-2.06372 283.281 22.7625 222.511 139.611 212.958C285.672 201.017 281.724 159.221 304.093 125.386C326.463 91.552 361.991 57.7176 486.998 84.5862C612.005 111.455 734.38 120.411 827.806 56.7225C902.547 5.77173 974.898 0 1001.5 0C1028.1 0 1100.45 5.77173 1175.19 56.7225C1268.62 120.411 1391 111.455 1516 84.5862C1641.01 57.7176 1676.54 91.552 1698.91 125.386C1721.28 159.221 1717.33 201.017 1863.39 212.958Z" fill="#1D1534"/>
</svg>
