<svg width="1920" height="1708" viewBox="0 0 1920 1708" fill="none" xmlns="http://www.w3.org/2000/svg">
<path d="M98.6108 1495.04C-18.2377 1485.49 -43.0636 1424.72 -40.8705 1395.53L-40.8705 0L1961.87 0V1395.53C1964.06 1424.72 1939.24 1485.49 1822.39 1495.04C1676.33 1506.98 1680.28 1548.78 1657.91 1582.61C1635.54 1616.45 1600.01 1650.28 1475 1623.41C1350 1596.55 1227.62 1587.59 1134.19 1651.28C1059.45 1702.23 987.102 1708 960.5 1708C933.898 1708 861.547 1702.23 786.806 1651.28C693.38 1587.59 571.005 1596.55 445.998 1623.41C320.991 1650.28 285.463 1616.45 263.093 1582.61C240.724 1548.78 244.671 1506.98 98.6108 1495.04Z" fill="#1D1534"/>
<path d="M98.6108 1495.04C-18.2377 1485.49 -43.0636 1424.72 -40.8705 1395.53L-40.8705 0L1961.87 0V1395.53C1964.06 1424.72 1939.24 1485.49 1822.39 1495.04C1676.33 1506.98 1680.28 1548.78 1657.91 1582.61C1635.54 1616.45 1600.01 1650.28 1475 1623.41C1350 1596.55 1227.62 1587.59 1134.19 1651.28C1059.45 1702.23 987.102 1708 960.5 1708C933.898 1708 861.547 1702.23 786.806 1651.28C693.38 1587.59 571.005 1596.55 445.998 1623.41C320.991 1650.28 285.463 1616.45 263.093 1582.61C240.724 1548.78 244.671 1506.98 98.6108 1495.04Z" fill="url(#paint0_linear_131_17)"/>
<defs>
<linearGradient id="paint0_linear_131_17" x1="-41.0001" y1="68.1518" x2="2582.98" y2="572.961" gradientUnits="userSpaceOnUse">
<stop stop-color="#ED374D"/>
<stop offset="0.505208" stop-color="#FA793F"/>
<stop offset="1" stop-color="#F7F651"/>
</linearGradient>
</defs>
</svg>
