<svg width="2494" height="658" viewBox="0 0 2494 658" fill="none" xmlns="http://www.w3.org/2000/svg">
<path d="M2357.07 463.787C2497.95 518.323 2503.55 610.868 2488 658H2292.89H0V260.423C10.1017 211.831 67.6227 120.452 216.895 143.661C403.484 172.672 416.945 102.83 459.583 54.7964C502.221 6.76247 561.196 -36.8941 704.595 48.747C847.995 134.388 995.996 189.784 1139.97 116.44C1255.15 57.764 1347.51 72.3698 1380.54 81.2198C1413.57 90.0697 1500.86 123.602 1571.27 232.007C1659.29 367.513 1815.16 393.539 1982.17 391.071C2149.18 388.604 2357.07 463.787 2357.07 463.787Z" fill="#1D1534"/>
</svg>
