<svg width="2003" height="366" viewBox="0 0 2003 366" fill="none" xmlns="http://www.w3.org/2000/svg">
<path d="M7.45058e-08 52.5862C7.45058e-08 52.5862 22.7623 142.575 139.611 152.128C262.971 162.214 279.327 193.595 294.909 223.49C297.776 228.991 300.617 234.441 304.093 239.7C326.463 273.534 361.991 307.369 486.998 280.5C612.005 253.632 734.38 244.675 827.806 308.364C902.547 359.315 974.898 365.086 1001.5 365.086C1028.1 365.086 1100.45 359.315 1175.19 308.364C1268.62 244.675 1391 253.632 1516 280.5C1641.01 307.369 1676.54 273.534 1698.91 239.7C1702.38 234.441 1705.22 228.991 1708.09 223.49C1723.67 193.595 1740.03 162.214 1863.39 152.128C1980.24 142.575 2002.87 52.615 2002.87 52.615V5.14984e-05L1987.87 5.14984e-05L1959.37 5.34058e-05L1887.87 0L1747.37 0.000297546L1593.37 0.000297546L1374.37 0L1204.87 0.000297546L870.267 0.000297546L508.267 0L401.267 0.000297546L303.964 0.000297546L236.871 0L0 0.000382423L7.45058e-08 8.30884L7.45058e-08 52.5862Z" fill="white"/>
</svg>
