<svg width="2003" height="371" viewBox="0 0 2003 371" fill="none" xmlns="http://www.w3.org/2000/svg">
<path d="M139.611 157.542C22.7623 147.989 -2.06365 87.2193 0.129454 58.0287L0.129515 0L1001.5 0L2002.87 0V58.0287C2005.06 87.2193 1980.24 147.989 1863.39 157.542C1717.33 169.483 1721.28 211.279 1698.91 245.114C1676.54 278.948 1641.01 312.782 1516 285.914C1391 259.045 1268.62 250.089 1175.19 313.778C1100.45 364.728 1028.1 370.5 1001.5 370.5C974.898 370.5 902.547 364.728 827.806 313.778C734.38 250.089 612.005 259.045 486.998 285.914C361.991 312.782 326.463 278.948 304.093 245.114C281.724 211.279 285.671 169.483 139.611 157.542Z" fill="#1D1534"/>
</svg>
