<svg width="1271" height="60" viewBox="0 0 1271 60" fill="none" xmlns="http://www.w3.org/2000/svg">
<path opacity="0.12" d="M1270.41 58.9996L1254.36 58.9996M794.409 58.9996L1254.36 58.9996M1254.36 58.9996C1236.13 59.081 1199.67 48.1952 1199.67 4.00001M854.696 58.9996C836.464 59.081 800 48.1952 800 4M850.365 58.9996L458.696 58.9996M458.696 58.9996H458.289M458.696 58.9996C458.561 59.0002 458.426 59.0002 458.289 58.9996M458.289 58.9996L398.409 58.9996M458.289 58.9996C439.927 58.9183 404 47.8685 404 4M455.365 58.9996L59.6962 58.9996M59.6962 58.9996H59.2888M59.6962 58.9996C59.5614 59.0002 59.4256 59.0002 59.2888 58.9996M59.2888 58.9996C40.927 58.9183 5 47.8685 5 4" stroke="black" stroke-width="2" stroke-dasharray="2 2"/>
<circle cx="4.5" cy="4.5" r="4.5" transform="rotate(-90 4.5 4.5)" fill="#22A75D"/>
<circle cx="404.5" cy="4.5" r="4.5" transform="rotate(-90 404.5 4.5)" fill="#22A75D"/>
<circle cx="800.5" cy="4.5" r="4.5" transform="rotate(-90 800.5 4.5)" fill="#22A75D"/>
<circle cx="1200.5" cy="4.5" r="4.5" transform="rotate(-90 1200.5 4.5)" fill="#22A75D"/>
</svg>
