<svg width="20" height="20" viewBox="0 0 20 20" fill="none" xmlns="http://www.w3.org/2000/svg">
<g clip-path="url(#clip0_131_290)">
<path d="M14.1666 1.66667H5.83329C3.53211 1.66667 1.66663 3.53215 1.66663 5.83334V14.1667C1.66663 16.4679 3.53211 18.3333 5.83329 18.3333H14.1666C16.4678 18.3333 18.3333 16.4679 18.3333 14.1667V5.83334C18.3333 3.53215 16.4678 1.66667 14.1666 1.66667Z" stroke="white" stroke-width="2" stroke-linecap="round" stroke-linejoin="round"/>
<path d="M13.3334 9.47504C13.4362 10.1686 13.3178 10.8769 12.9948 11.4992C12.6719 12.1215 12.161 12.6262 11.5347 12.9414C10.9085 13.2566 10.1987 13.3664 9.50653 13.255C8.81431 13.1436 8.17484 12.8168 7.67907 12.321C7.1833 11.8252 6.85648 11.1858 6.7451 10.4935C6.63371 9.80133 6.74343 9.09162 7.05865 8.46535C7.37386 7.83908 7.87853 7.32815 8.50086 7.00524C9.12319 6.68232 9.8315 6.56386 10.525 6.6667C11.2325 6.77161 11.8874 7.10126 12.3931 7.60696C12.8988 8.11266 13.2285 8.7676 13.3334 9.47504Z" stroke="white" stroke-width="2" stroke-linecap="round" stroke-linejoin="round"/>
<path d="M14.5834 5.41667H14.5917" stroke="white" stroke-width="2" stroke-linecap="round" stroke-linejoin="round"/>
</g>
<defs>
<clipPath id="clip0_131_290">
<rect width="20" height="20" fill="white"/>
</clipPath>
</defs>
</svg>
