<svg width="20" height="20" viewBox="0 0 20 20" fill="none" xmlns="http://www.w3.org/2000/svg">
<path d="M19.1666 2.50003C18.3686 3.06293 17.485 3.49346 16.5499 3.77503C16.048 3.19796 15.381 2.78894 14.6391 2.6033C13.8972 2.41767 13.1162 2.46436 12.4017 2.73708C11.6871 3.00979 11.0736 3.49537 10.6441 4.12813C10.2145 4.76089 9.98967 5.51031 9.99992 6.27503V7.10837C8.53545 7.14634 7.08431 6.82154 5.77576 6.1629C4.4672 5.50427 3.34185 4.53223 2.49992 3.33337C2.49992 3.33337 -0.833415 10.8334 6.66658 14.1667C4.95036 15.3317 2.90588 15.9158 0.833252 15.8334C8.33325 20 17.4999 15.8334 17.4999 6.25003C17.4991 6.01791 17.4768 5.78636 17.4333 5.55837C18.2838 4.71961 18.8839 3.66063 19.1666 2.50003Z" fill="white"/>
</svg>
